<svg version="1.1" xmlns="http://www.w3.org/2000/svg" x="0" y="0" viewBox="0 0 36 36" width="36" height="36" xml:space="preserve"><style>.st2{fill:#8f9091}</style><path class="st2" d="M30.38 6.05H17.96c-1.45 0-2.62 1.17-2.62 2.62v3.36H5.62A2.631 2.631 0 0 0 3 14.66v7.93c0 1.45 1.17 2.62 2.62 2.62h.67l-1.06 4.11c-.03.21.07.41.23.52.01.01.02.01.02.02.01 0 .02.01.02.01.17.1.39.12.57.01l5.99-4.67h5.95c1.45 0 2.62-1.17 2.62-2.62v-3.36h3.26l5.99 4.67c.18.11.4.1.57-.01.01 0 .02-.01.02-.01.01-.01.02-.01.02-.02.16-.11.26-.31.23-.52l-1.06-4.11h.67c1.45 0 2.62-1.17 2.62-2.62V8.67c.05-1.44-1.12-2.62-2.57-2.62zM19.76 22.38c0 1.04-.84 1.88-1.88 1.88H11.6l-1.18.95-3.95 3.16.86-3.16.26-.95H5.77c-1.04 0-1.88-.84-1.88-1.88v-7.52c0-1.04.84-1.88 1.88-1.88h12.12c1.04 0 1.88.84 1.88 1.88v7.52zM32.1 16.4c0 1.04-.84 1.88-1.88 1.88h-1.81l.26.95.86 3.16-3.95-3.16-1.18-.95h-3.74v-3.62c0-1.45-1.17-2.62-2.62-2.62h-1.8V8.88c0-1.04.84-1.88 1.88-1.88h12.11c1.04 0 1.88.84 1.88 1.88v7.52z"/><path class="st2" d="M12.01 21.22h-.24c-.3 0-.54.24-.54.54v.22c0 .3.24.54.54.54h.24c.3 0 .54-.24.54-.54v-.22c0-.3-.25-.54-.54-.54zm.01-5.95h-.25c-.3 0-.55.25-.54.55l.12 4.09a.54.54 0 0 0 1.08 0l.13-4.09a.54.54 0 0 0-.54-.55zm12.27-.36h-.21c-.28 0-.51.23-.51.51v.2c0 .28.23.51.51.51h.21c.28 0 .51-.23.51-.51v-.2c0-.28-.23-.51-.51-.51zm-.12-5.7c-.67 0-1.23.18-1.75.54a.51.51 0 0 0 .59.83c.52-.34.95-.34 1.11-.34.72 0 1.17.42 1.17.94 0 .42-.22.6-.81 1.09-.64.53-.81.96-.85 1.63-.02.29.22.54.51.54h.11c.27 0 .48-.21.51-.47.04-.42.17-.68.61-1.08.62-.56 1.04-.94 1.04-1.74 0-.98-.8-1.94-2.24-1.94z"/></svg>