<svg version="1.1" xmlns="http://www.w3.org/2000/svg" x="0" y="0" viewBox="0 0 36 36" width="36" height="36" xml:space="preserve"><style>.st2{fill:#8f9091}</style><path class="st2" d="M29.92 10.09l-.47-.2L18 5 5.58 10.3v13.22L18 31l12.42-7.48V10.3l-.5-.21zM17.5 29.56l-10.95-6.6V11.41l10.95 5.46v12.69zm.5-13.53L7.22 10.66 18 6.06l10.78 4.6L18 16.03zm11.45 6.94l-10.95 6.6v-12.7l10.95-5.46v11.56z"/><path class="st2" d="M19.04 9.49c-.61-.19-1.3-.25-1.93-.18-.37.05-.81.21-1.1.35-.07.04-.2.12-.26.16-.58.39-.62 1.01-.1 1.47.12.11.26.21.44.3.17.09.38.2.58.26.92.3 1.94.3 2.81-.07l.12-.06c.42-.21.64-.5.65-.8.49.04 1.01-.03 1.5-.28.81-.41.94-1.08-.34-1.77-1.99-1.08-4.9-1.09-7.06-.01-2.16 1.09-2.1 2.64-.09 3.73s4.95 1.15 7.09.03c.84-.44 1.13-.72 1.52-1.21.23-.33-.14-.55-.31-.57a.63.63 0 0 0-.53.13c-.1.08-.49.58-1.48 1.02-1.94.87-4.1.69-5.52-.01-1.48-.73-1.54-1.86.21-2.7 1.59-.77 3.83-.82 5.42.04.89.48.72.64.37.84-.16.09-.53.11-.96-.12-.12-.11-.27-.22-.44-.31-.18-.09-.38-.17-.59-.24zm-2.26 1.64c-.4-.21-.5-.46-.45-.62.04-.13.17-.25.35-.34.19-.09.42-.15.67-.17.48-.04 1.02.04 1.41.26.38.2.54.47.46.71-.07.2-.61.41-1.1.43-.46.02-.96-.06-1.34-.27zm-8.3 3.91l1.68.88 1.27 4 2.14-2.57 1.42.75-2.37 2.65 1.16.65v1.06l-1.71-.93v.79l1.72.95v1.1l-1.72-.98v1.55l-1.49-.9v-1.45l-1.55-.9v-1.04l1.56.86-.01-.77-1.55-.85v-1.15l1.06.59zm13.72 8.08l-.56-.86-.99 1.14-.63-.86.1-.89.76-.75 1.27-.01.27.23 3.07-3.58-.25-.39.18-1.72.79-.62s.64.02.7.01l.47.79-.95 1.1.58.86.89-1.05.48.77-.08.74-.62.85-1.1-.12-.16-.19-3.26 3.75.2.32-.31 1.77-.88.84-.45-.04-.53-.85 1.01-1.24z"/></svg>