<svg version="1.1" xmlns="http://www.w3.org/2000/svg" x="0" y="0" viewBox="0 0 36 36" width="36" height="36" xml:space="preserve"><style>.st1{fill:none}</style><path class="st1" d="M22.38 22.41v4.84h2.6v-3.11a5.539 5.539 0 0 1-2.6-1.73zm-1.29-2.95H15.7v7.79h5.72V20.8c-.16-.42-.28-.87-.33-1.34zm6.28-6.25v-1.74H3.1v1.92h21.97c.5-.15 1.04-.23 1.59-.23.24 0 .48.02.71.05z"/><path class="st1" d="M8.58 18.51h12.47c.08-1.69.91-3.19 2.16-4.17H5.5v12.91h2.6v-8.27c0-.26.21-.47.48-.47z"/><path class="st1" d="M9.05 19.46h5.69v7.79H9.05zM3.1 8.75h24.27v1.77H3.1zm29.66 14.94a.863.863 0 0 0-1.21 0c-.33.33-.33.87 0 1.21l2.19 2.19c.33.33.87.33 1.21 0 .33-.33.33-.87 0-1.21l-2.19-2.19z"/><path d="M28.09 14.25c.01 0 .01 0 0 0 .01 0 0 0 0 0zm-3.11.1h.01-.01zm-3.1 4.16h.05-.05z"/><path d="M30.92 22.44c.85-.98 1.36-2.26 1.36-3.66 0-2.52-1.66-4.66-3.95-5.37V8.28c0-.23-.17-.43-.39-.47-.04-.01-.08-.02-.12-.02H2.62a.48.48 0 0 0-.48.48v5.59c0 .26.21.48.48.48h1.92v12.91H.48a.48.48 0 0 0 0 .96h29.51a.48.48 0 0 0 0-.96h-4.06v-2.9a5.564 5.564 0 0 0 4.39-1.31l.41.41c-.36.62-.27 1.43.26 1.96l2.23 2.23c.63.63 1.67.63 2.3 0 .63-.63.63-1.67 0-2.3l-2.23-2.23a1.64 1.64 0 0 0-1.96-.26l-.41-.41M3.1 8.75h24.27v1.77H3.1V8.75zm0 4.64v-1.92h24.27v1.74c-.23-.03-.47-.05-.71-.05-.55 0-1.09.08-1.59.23H3.1zm11.65 13.86h-5.7v-7.79h5.69v7.79zm-6.17-8.74c-.27 0-.48.21-.48.48v8.27H5.5V14.34h17.71a5.621 5.621 0 0 0-2.16 4.17H8.58zm12.84 8.74H15.7v-7.79h5.38c.06.47.17.92.34 1.34v6.45zm3.56 0h-2.6v-4.84c.68.8 1.58 1.41 2.6 1.73v3.11zm.95-3.79a4.728 4.728 0 0 1-3.55-2.66 4.705 4.705 0 0 1-.46-2.02c0-.09.01-.18.01-.26h-.05.04a4.739 4.739 0 0 1 3.05-4.16h.01c.3-.11.62-.2.94-.25a4.403 4.403 0 0 1 1.52.01c.22.04.43.08.64.15 0 0 .01 0 .01-.01l-.01.01c1.92.61 3.31 2.4 3.31 4.52 0 2.62-2.12 4.74-4.74 4.74-.24-.01-.48-.03-.72-.07zm9.02 3.63c-.33.33-.87.33-1.21 0l-2.19-2.19a.863.863 0 0 1 0-1.21c.33-.33.87-.33 1.21 0l2.19 2.19c.33.33.33.88 0 1.21z" fill="#8f9091"/></svg>